<svg width="512" height="512" viewBox="0 0 512 512" fill="none" xmlns="http://www.w3.org/2000/svg">
<g clip-path="url(#clip0)">
<path d="M437.02 74.9805C388.668 26.6289 324.379 0 256 0C187.617 0 123.332 26.6289 74.9805 74.9805C26.6289 123.332 0 187.617 0 256C0 324.379 26.6289 388.668 74.9805 437.02C123.332 485.371 187.617 512 256 512C324.379 512 388.668 485.371 437.02 437.02C485.371 388.668 512 324.379 512 256C512 187.617 485.371 123.332 437.02 74.9805V74.9805ZM128.34 442.387C139.047 380.738 192.469 335.266 256 335.266C319.535 335.266 372.953 380.738 383.66 442.387C347.312 467.359 303.336 482 256 482C208.664 482 164.688 467.359 128.34 442.387ZM174.602 223.867C174.602 178.98 211.117 142.469 256 142.469C300.883 142.469 337.398 178.984 337.398 223.867C337.398 268.75 300.883 305.266 256 305.266C211.117 305.266 174.602 268.75 174.602 223.867V223.867ZM409.645 421.578C401.57 392.879 385.535 366.84 363.059 346.5C349.27 334.02 333.574 324.172 316.699 317.23C347.199 297.336 367.402 262.918 367.402 223.867C367.402 162.441 317.426 112.469 256 112.469C194.574 112.469 144.602 162.441 144.602 223.867C144.602 262.918 164.805 297.336 195.301 317.23C178.43 324.172 162.73 334.016 148.941 346.496C126.469 366.836 110.43 392.875 102.355 421.574C57.8828 380.273 30 321.336 30 256C30 131.383 131.383 30 256 30C380.617 30 482 131.383 482 256C482 321.34 454.117 380.277 409.645 421.578V421.578Z" fill="#AAE03D"/>
</g>
<defs>
<clipPath id="clip0">
<rect width="512" height="512" fill="white"/>
</clipPath>
</defs>
</svg>
